<?xml version="1.0" encoding="UTF-8"?>
<svg id="_レイヤー_2" data-name="レイヤー 2" xmlns="http://www.w3.org/2000/svg" width="4076" height="861.99" xmlns:xlink="http://www.w3.org/1999/xlink" viewBox="0 0 4076 861.99">
  <defs>
    <style>
      .cls-1 {
        fill: url(#_名称未設定グラデーション_3);
      }

      .cls-2 {
        fill: #40a5b2;
      }

      .cls-3 {
        fill: url(#_名称未設定グラデーション_21);
      }
    </style>
    <linearGradient id="_名称未設定グラデーション_3" data-name="名称未設定グラデーション 3" x1="549.98" y1="718.02" x2="549.98" y2="0" gradientUnits="userSpaceOnUse">
      <stop offset="0" stop-color="#168092"/>
      <stop offset=".15" stop-color="#1c889b"/>
      <stop offset=".4" stop-color="#2c9fb4"/>
      <stop offset=".51" stop-color="#35acc2"/>
      <stop offset=".99" stop-color="#4abcd3"/>
    </linearGradient>
    <linearGradient id="_名称未設定グラデーション_21" data-name="名称未設定グラデーション 21" x1="382.51" y1="861.99" x2="382.51" y2="143.97" gradientUnits="userSpaceOnUse">
      <stop offset="0" stop-color="#0b3f47"/>
      <stop offset=".14" stop-color="#0f4750"/>
      <stop offset=".36" stop-color="#195e69"/>
      <stop offset=".51" stop-color="#22707d"/>
      <stop offset=".99" stop-color="#245b66"/>
    </linearGradient>
  </defs>
  <g id="_レイヤー_2-2" data-name="レイヤー 2">
    <g>
      <path class="cls-1" d="M190.97,109.47c150.29-63.35,346.85-20.29,487.85,120.71,141,141,184.06,337.56,120.71,487.85,151.35-169.23,145.76-429.26-16.76-591.79S360.21-41.88,190.97,109.47Z"/>
      <path class="cls-3" d="M765.03,752.52c-150.29,63.35-346.85,20.29-487.85-120.71S93.12,294.25,156.47,143.97C5.88,312.36,10.66,570.63,170.82,733.31L0,861.99h493l-.4-.25c97.8-3.3,194.7-39.7,272.43-109.22Z"/>
      <path class="cls-2" d="M332.53,316.76c-29.17-7.81-65.69,33.6-81.43,92.32-15.73,58.72-4.81,112.85,24.36,120.66,29.17,7.81,65.69-33.6,81.43-92.32,15.73-58.72,4.81-112.85-24.36-120.66Z"/>
      <path class="cls-2" d="M502.53,315.75c-29.17-7.81-65.69,33.6-81.43,92.32-15.73,58.72-4.81,112.85,24.36,120.66,29.17,7.81,65.69-33.6,81.43-92.32,15.73-58.72,4.81-112.85-24.36-120.66Z"/>
      <path class="cls-2" d="M672.53,316.76c-29.17-7.81-65.69,33.6-81.43,92.32-15.73,58.72-4.81,112.85,24.36,120.66,29.17,7.81,65.69-33.6,81.43-92.32,15.73-58.72,4.81-112.85-24.36-120.66Z"/>
    </g>
    <g>
      <path d="M1088.07,475.58c0-171.14,110.12-271.45,241.28-271.45,65.93,0,118.54,31.56,152.21,66.64l-54.72,65.93c-25.96-25.25-56.11-43.48-95.4-43.48-78.56,0-137.49,67.34-137.49,178.87s53.31,180.97,135.37,180.97c44.18,0,79.27-21.04,107.32-51.21l54.72,64.52c-42.79,49.8-98.2,76.45-165.54,76.45-131.16,0-237.78-93.99-237.78-267.24h.02Z"/>
      <path d="M1534.87,173.26h102.4v140.99l-4.21,73.65c31.56-29.46,70.14-57.52,123.45-57.52,84.86,0,121.36,58.93,121.36,157.83v244.81h-103.11v-232.18c0-60.32-16.84-82.06-55.4-82.06-32.26,0-52.6,15.43-82.06,44.18v270.04h-102.4V173.26h-.02Z"/>
      <path d="M1933.98,626.38c0-84.16,68.03-128.36,225.85-145.2-1.41-38.59-18.25-68.03-66.64-68.03-36.47,0-71.55,16.13-108.02,37.18l-37.18-68.03c46.3-28.76,102.4-51.9,164.13-51.9,99.61,0,150.8,59.63,150.8,173.25v229.36h-84.16l-7.71-42.09h-2.09c-34.38,29.46-73.65,51.9-118.54,51.9-70.14,0-116.44-49.8-116.44-116.44ZM2159.83,623.58v-79.27c-95.4,12.63-127.66,38.59-127.66,73.65,0,30.85,21.75,44.18,51.9,44.18s51.21-14.04,75.76-38.59v.02Z"/>
      <path d="M2365.97,595.53v-173.96h-55.4v-76.45l60.31-4.91,11.92-105.2h86.27v105.2h96.79v81.36h-96.79v173.96c0,44.89,18.25,65.93,53.31,65.93,12.63,0,28.05-4.21,38.59-8.42l16.84,75.06c-21.04,7.01-48.39,14.72-82.77,14.72-93.28,0-129.07-58.93-129.07-147.29h0Z"/>
      <path d="M2656.35,213.94h318.45v86.27h-214.64v119.95h182.38v86.98h-182.38v138.88h222.35v86.98h-326.17V213.94Z"/>
      <path d="M3026.7,626.38c0-84.16,68.03-128.36,225.85-145.2-1.41-38.59-18.25-68.03-66.64-68.03-36.47,0-71.55,16.13-108.02,37.18l-37.18-68.03c46.3-28.76,102.4-51.9,164.13-51.9,99.61,0,150.8,59.63,150.8,173.25v229.36h-84.16l-7.71-42.09h-2.09c-34.38,29.46-73.65,51.9-118.54,51.9-70.14,0-116.44-49.8-116.44-116.44ZM3252.55,623.58v-79.27c-95.4,12.63-127.66,38.59-127.66,73.65,0,30.85,21.75,44.18,51.9,44.18s51.21-14.04,75.76-38.59v.02Z"/>
      <path d="M3394.93,687.4l47-64.52c35.06,27.35,68.73,42.79,105.2,42.79,39.27,0,56.81-16.84,56.81-41.38,0-29.46-40.68-42.79-82.06-58.93-49.8-18.93-107.32-49.1-107.32-114.33,0-70.85,57.52-120.65,145.88-120.65,57.52,0,101.02,23.84,133.96,48.39l-46.3,62.43c-28.05-19.64-55.4-33.67-84.86-33.67-35.06,0-51.9,15.43-51.9,37.88,0,28.76,38.59,39.29,79.97,54.72,51.9,19.64,109.41,45.59,109.41,118.54,0,68.73-54.01,124.15-156.42,124.15-52.6,0-110.82-23.14-149.41-55.4l.02-.02Z"/>
      <path d="M3728.79,537.31c0-127.66,89.07-206.92,183.08-206.92,108.02,0,164.13,79.27,164.13,187.97,0,18.93-2.09,37.88-4.91,47h-241.99c8.42,64.52,50.51,98.2,108.73,98.2,32.26,0,60.32-9.83,88.39-27.35l35.06,63.13c-38.59,26.66-88.39,43.48-137.49,43.48-109.41,0-195-76.45-195-205.51h0ZM3987.61,497.33c0-53.31-23.84-86.98-74.35-86.98-41.38,0-77.86,29.46-85.57,86.98h159.92Z"/>
    </g>
  </g>
</svg>